HIERARCHY
ROOT Hips
{
 OFFSET 0.000000 0.000000 0.000000
 CHANNELS 6 Xposition Yposition Zposition Yrotation Xrotation Zrotation
 JOINT Chest
 {
  OFFSET 0.000000 9.585900 0.002600
  CHANNELS 3 Yrotation Xrotation Zrotation
  JOINT Chest2
  {
   OFFSET 0.000000 9.601200 -0.005300
   CHANNELS 3 Yrotation Xrotation Zrotation
   JOINT Chest3
   {
    OFFSET 0.000000 9.561800 0.000000
    CHANNELS 3 Yrotation Xrotation Zrotation
    JOINT Chest4
    {
     OFFSET 0.000000 9.552100 0.000000
     CHANNELS 3 Yrotation Xrotation Zrotation
     JOINT Neck
     {
      OFFSET 0.000000 14.453000 0.000000
      CHANNELS 3 Yrotation Xrotation Zrotation
      JOINT Head
      {
       OFFSET 0.000000 8.936500 -0.011300
       CHANNELS 3 Yrotation Xrotation Zrotation
       End Site
       {
        OFFSET 0.000000 17.073600 -0.006000
       }
      }
     }
     JOINT RightCollar
     {
      OFFSET -2.921100 9.558500 0.000000
      CHANNELS 3 Yrotation Xrotation Zrotation
      JOINT RightShoulder
      {
       OFFSET -13.519700 0.000000 0.000000
       CHANNELS 3 Yrotation Xrotation Zrotation
       JOINT RightElbow
       {
        OFFSET 0.000000 -29.696600 0.000000
        CHANNELS 3 Yrotation Xrotation Zrotation
        JOINT RightWrist
        {
         OFFSET 0.000000 -24.004700 0.000000
         CHANNELS 3 Yrotation Xrotation Zrotation
         End Site
         {
          OFFSET 0.000000 -17.728500 0.000000
         }
        }
       }
      }
     }
     JOINT LeftCollar
     {
      OFFSET 2.921100 9.558500 0.000000
      CHANNELS 3 Yrotation Xrotation Zrotation
      JOINT LeftShoulder
      {
       OFFSET 13.519700 0.000000 0.000000
       CHANNELS 3 Yrotation Xrotation Zrotation
       JOINT LeftElbow
       {
        OFFSET 0.000000 -29.696600 0.000000
        CHANNELS 3 Yrotation Xrotation Zrotation
        JOINT LeftWrist
        {
         OFFSET 0.000000 -24.004700 0.000000
         CHANNELS 3 Yrotation Xrotation Zrotation
         End Site
         {
          OFFSET 0.000000 -17.728500 0.000000
         }
        }
       }
      }
     }
    }
   }
  }
 }
 JOINT RightHip
 {
  OFFSET -7.771700 -0.012900 -0.001300
  CHANNELS 3 Yrotation Xrotation Zrotation
  JOINT RightKnee
  {
   OFFSET 0.000000 -40.869800 0.001200
   CHANNELS 3 Yrotation Xrotation Zrotation
   JOINT RightAnkle
   {
    OFFSET 0.000000 -39.717900 0.002100
    CHANNELS 3 Yrotation Xrotation Zrotation
    JOINT RightToe
    {
     OFFSET 0.000000 -4.965400 11.033500
     CHANNELS 3 Yrotation Xrotation Zrotation
     End Site
     {
      OFFSET 0.000000 -1.423100 5.872300
     }
    }
   }
  }
 }
 JOINT LeftHip
 {
  OFFSET 7.771700 -0.012900 -0.001300
  CHANNELS 3 Yrotation Xrotation Zrotation
  JOINT LeftKnee
  {
   OFFSET 0.000000 -40.869800 0.001200
   CHANNELS 3 Yrotation Xrotation Zrotation
   JOINT LeftAnkle
   {
    OFFSET 0.000000 -39.717900 0.002100
    CHANNELS 3 Yrotation Xrotation Zrotation
    JOINT LeftToe
    {
     OFFSET 0.000000 -4.965400 11.033500
     CHANNELS 3 Yrotation Xrotation Zrotation
     End Site
     {
      OFFSET 0.000000 -1.423100 5.872300
     }
    }
   }
  }
 }
}
MOTION
Frames: 13
Frame Time: 0.008333
-58.562456 50.578011 -0.966141 162.546957 -6.664046 -0.530200 3.932433 7.515375 0.554173 0.160615 0.371114 -0.029611 0.278410 0.647536 -0.047688 3.015956 7.120924 -0.359467 2.424513 18.117051 0.149425 4.386698 -2.122872 -0.503866 3.109683 5.730509 0.435374 -7.985316 -14.625140 -9.046640 -95.442686 -76.924091 119.417471 -2.599173 0.508138 -29.836046 -6.148561 2.514101 -0.201246 21.161046 -7.414905 3.610503 89.525488 -71.097203 -118.164866 2.604648 4.469103 8.759237 -9.626137 -73.290004 2.962694 -117.979183 80.711772 -114.880176 0.543235 -16.194330 -2.323763 -0.172670 1.008731 -0.080079 -11.809012 -77.259832 29.371973 116.716607 78.901722 113.889002 -15.504209 -22.606223 -0.266482 -0.586444 -1.002598 -0.323834
-58.563050 50.578351 -0.967317 162.542635 -6.674804 -0.531800 3.939157 7.524842 0.555203 0.159317 0.371965 -0.028024 0.280883 0.643016 -0.046051 3.025778 7.127166 -0.360094 2.408636 18.111230 0.155810 4.352650 -2.119058 -0.490253 3.095865 5.720666 0.433992 -7.996859 -14.624598 -9.041928 -95.391508 -76.929195 119.370733 -2.601954 0.512371 -29.839673 -6.169200 2.495108 -0.175676 21.169467 -7.395530 3.596197 89.548226 -71.108412 -118.185277 2.529863 4.648419 9.048828 -9.613620 -73.277377 2.950079 -117.973065 80.714695 -114.867278 0.556769 -16.191867 -2.323382 -0.185990 1.008078 -0.087007 -11.794966 -77.249020 29.362533 116.795585 78.907804 113.971032 -15.498207 -22.661324 -0.253994 -0.622879 -1.051005 -0.311791
-58.565896 50.578488 -0.967497 162.532952 -6.674452 -0.521239 3.951244 7.513143 0.550494 0.157237 0.377711 -0.029527 0.282600 0.642875 -0.047519 3.035333 7.123621 -0.361376 2.392485 18.115788 0.159223 4.341173 -2.113094 -0.485167 3.078119 5.707887 0.440682 -8.014792 -14.615055 -9.047977 -95.315436 -76.930662 119.309730 -2.604905 0.510698 -29.833673 -6.184930 2.495280 -0.163043 21.165008 -7.408705 3.598880 89.704597 -71.205753 -118.298331 2.558906 4.858958 9.359948 -9.569714 -73.279114 2.912956 -117.919107 80.709645 -114.809906 0.566616 -16.190594 -2.320416 -0.193301 1.014125 -0.089373 -11.742133 -77.252389 29.317415 116.856886 78.909863 114.036266 -15.523089 -22.698861 -0.233764 -0.594222 -1.068724 -0.308424
-58.565868 50.578918 -0.968664 162.533723 -6.683951 -0.525858 3.954106 7.515093 0.555594 0.157120 0.379310 -0.027446 0.283742 0.641102 -0.049858 3.049921 7.115088 -0.361997 2.370012 18.125024 0.163809 4.331995 -2.105192 -0.480429 3.056536 5.714235 0.447909 -8.015279 -14.610034 -9.051529 -95.274048 -76.939679 119.264678 -2.609782 0.515292 -29.840026 -6.205974 2.504766 -0.153829 21.151736 -7.456705 3.609761 89.674212 -71.278370 -118.212029 2.548340 5.062375 9.699005 -9.573103 -73.267590 2.914880 -117.903002 80.705741 -114.785546 0.570542 -16.188203 -2.321075 -0.191801 1.012178 -0.092007 -11.725402 -77.247555 29.297306 116.899678 78.905274 114.085000 -15.508656 -22.728020 -0.218870 -0.602362 -1.089364 -0.310592
-58.566105 50.579514 -0.970750 162.543946 -6.697962 -0.527590 3.947312 7.519553 0.554993 0.158067 0.382036 -0.024806 0.283721 0.638391 -0.052591 3.048974 7.122222 -0.359356 2.365082 18.124444 0.164092 4.271613 -2.098874 -0.458626 3.052281 5.712920 0.449782 -8.018931 -14.610151 -9.052552 -95.225008 -76.950517 119.210345 -2.611552 0.534589 -29.849463 -6.209797 2.505173 -0.151400 21.146563 -7.479021 3.615310 89.671386 -71.345224 -118.160635 2.515082 5.262117 10.051525 -9.572615 -73.252272 2.904232 -117.918057 80.705321 -114.796526 0.571387 -16.188638 -2.320162 -0.194017 1.009901 -0.093978 -11.712571 -77.234555 29.275980 116.924198 78.901837 114.107982 -15.526961 -22.750314 -0.181211 -0.596053 -1.092340 -0.331282
-58.568032 50.580060 -0.972221 162.550584 -6.706104 -0.519343 3.943478 7.516907 0.544993 0.161185 0.371647 -0.028385 0.281205 0.648669 -0.048854 3.055236 7.122761 -0.361228 2.354325 18.132105 0.169341 4.246001 -2.092444 -0.452166 3.037731 5.711940 0.463457 -8.017404 -14.607611 -9.058601 -95.157131 -76.964942 119.138070 -2.616488 0.534548 -29.845978 -6.225671 2.509014 -0.140202 21.146234 -7.491935 3.617734 89.645508 -71.413554 -118.077774 2.486857 5.456390 10.407807 -9.539892 -73.244099 2.864149 -117.914292 80.706949 -114.789766 0.569455 -16.192433 -2.317898 -0.193412 1.013571 -0.096820 -11.671064 -77.229087 29.229276 116.931147 78.896384 114.112675 -15.556200 -22.745673 -0.162667 -0.603827 -1.116993 -0.334159
-58.570605 50.580363 -0.971074 162.572230 -6.699412 -0.512653 3.922784 7.505006 0.535125 0.163544 0.365213 -0.027824 0.281162 0.648319 -0.048844 3.058189 7.123747 -0.361915 2.335522 18.129093 0.167848 4.244214 -2.075732 -0.448648 3.034882 5.706483 0.471838 -8.029598 -14.596567 -9.060166 -95.059348 -76.976378 119.035917 -2.618921 0.555345 -29.859145 -6.238780 2.508163 -0.132702 21.145533 -7.492768 3.618958 89.607068 -71.480145 -117.979853 2.470021 5.641483 10.771379 -9.529656 -73.249056 2.829784 -117.909137 80.712477 -114.782539 0.576620 -16.200778 -2.316228 -0.200441 1.022799 -0.099387 -11.661456 -77.236963 29.203594 116.887484 78.889950 114.058955 -15.587928 -22.729590 -0.148173 -0.633226 -1.152316 -0.328092
-58.572445 50.580347 -0.966524 162.592989 -6.676532 -0.514814 3.903572 7.476104 0.533817 0.165277 0.361821 -0.027186 0.279694 0.651309 -0.049194 3.062408 7.115121 -0.362659 2.325904 18.140143 0.168777 4.234472 -2.069107 -0.446983 3.030292 5.700727 0.473414 -8.033397 -14.579530 -9.058780 -95.010169 -76.983224 118.986550 -2.620048 0.559573 -29.871485 -6.244053 2.511816 -0.126641 21.141887 -7.484088 3.617882 89.557730 -71.537101 -117.874772 2.460279 5.815451 11.134608 -9.557869 -73.269221 2.841485 -117.860097 80.714669 -114.733641 0.583332 -16.199707 -2.317008 -0.208846 1.028777 -0.098329 -11.686847 -77.257015 29.225825 116.815626 78.889186 113.973895 -15.631987 -22.718815 -0.132722 -0.582618 -1.169057 -0.304362
-58.571909 50.580685 -0.964738 162.604936 -6.675969 -0.523290 3.898191 7.462481 0.543218 0.160957 0.371215 -0.028352 0.280620 0.647714 -0.048826 3.059027 7.105911 -0.363572 2.322344 18.151766 0.168578 4.214210 -2.060310 -0.446799 3.031415 5.713851 0.474063 -8.040585 -14.594296 -9.056202 -94.916741 -76.986013 118.899606 -2.619389 0.563924 -29.880476 -6.244749 2.511264 -0.118703 21.131919 -7.483340 3.615464 89.433777 -71.582963 -117.677372 2.454662 5.977269 11.472373 -9.593152 -73.269126 2.869773 -117.843856 80.712806 -114.718037 0.591245 -16.190479 -2.315332 -0.217428 1.021310 -0.099959 -11.715823 -77.257175 29.249903 116.788170 78.886761 113.940082 -15.612823 -22.705180 -0.138679 -0.564779 -1.180186 -0.289947
-58.572355 50.580871 -0.963315 162.618483 -6.677406 -0.524628 3.886783 7.443624 0.546748 0.161135 0.380807 -0.028465 0.280379 0.647496 -0.048758 3.056066 7.105128 -0.362265 2.313424 18.158719 0.165289 4.174123 -2.041779 -0.450963 3.032048 5.714700 0.468952 -8.041342 -14.586265 -9.056059 -94.891706 -76.985955 118.873960 -2.617922 0.564728 -29.882816 -6.247131 2.514678 -0.112302 21.127827 -7.489398 3.602074 89.273905 -71.623160 -117.440533 2.456221 6.123100 11.776017 -9.605709 -73.268279 2.870926 -117.830158 80.710871 -114.704186 0.597769 -16.186136 -2.313329 -0.225118 1.018035 -0.103177 -11.713128 -77.259576 29.236188 116.760717 78.880047 113.908092 -15.586523 -22.680762 -0.146073 -0.575352 -1.198492 -0.281858
-58.575429 50.580783 -0.962301 162.637287 -6.677411 -0.510069 3.867050 7.433969 0.529966 0.158994 0.382814 -0.027865 0.280153 0.647497 -0.048740 3.054351 7.105959 -0.361558 2.305040 18.163619 0.162412 4.161190 -2.032822 -0.452536 3.029126 5.706786 0.458677 -8.036076 -14.580453 -9.046291 -94.851952 -76.986586 118.826723 -2.615305 0.569969 -29.877990 -6.252809 2.505620 -0.102519 21.130494 -7.491584 3.583998 89.072913 -71.661963 -117.161657 2.465004 6.247152 12.055893 -9.569712 -73.271786 2.817219 -117.797185 80.701369 -114.676436 0.609158 -16.188367 -2.303619 -0.231540 1.021627 -0.109040 -11.651804 -77.263555 29.157797 116.720539 78.867259 113.862980 -15.608668 -22.667596 -0.134709 -0.531954 -1.201835 -0.273585
-58.576259 50.580542 -0.961516 162.656632 -6.682962 -0.507510 3.850791 7.429019 0.527129 0.160284 0.370879 -0.028255 0.275621 0.658299 -0.050139 3.051356 7.106357 -0.363930 2.298009 18.169918 0.161617 4.150355 -2.023306 -0.450681 3.032264 5.703436 0.459322 -8.031205 -14.591358 -9.039972 -94.750262 -76.992527 118.719212 -2.616772 0.567507 -29.878986 -6.250013 2.511796 -0.097451 21.129921 -7.488322 3.580159 88.903493 -71.682479 -116.922969 2.479774 6.346449 12.314177 -9.565555 -73.267048 2.795627 -117.800517 80.701403 -114.679427 0.613666 -16.188978 -2.305438 -0.238825 1.022039 -0.108115 -11.610625 -77.263597 29.105132 116.700324 78.864560 113.850874 -15.643004 -22.668924 -0.127641 -0.549232 -1.191907 -0.270049
-58.575160 50.580422 -0.963779 162.653182 -6.709144 -0.507642 3.860200 7.444496 0.533205 0.160020 0.370550 -0.028125 0.279164 0.646603 -0.048462 3.046392 7.102278 -0.359912 2.285023 18.190506 0.155303 4.138718 -2.013362 -0.453242 3.028910 5.716733 0.450939 -8.031641 -14.581214 -9.037488 -94.758947 -76.992122 118.730085 -2.617453 0.569350 -29.886458 -6.251585 2.520539 -0.102432 21.120138 -7.482005 3.570855 88.786968 -71.700843 -116.764866 2.517861 6.448193 12.585736 -9.559428 -73.242809 2.797746 -117.795146 80.697025 -114.677547 0.612696 -16.182698 -2.308165 -0.238241 1.015816 -0.105224 -11.549688 -77.245850 29.055436 116.780838 78.866908 113.941327 -15.645733 -22.679324 -0.121575 -0.564035 -1.187956 -0.268735
